# xmcd CD database file generated by LOLA_Freedb v0.9beta0
# 
# Track frame offsets:
#      150
#      11002
#      25063
#      35300
#      45310
#      57465
#      68022
#      81488
#      93947
#      105520
#      118016
#      128465
#      141999
#      154562
#      168249
#      179673
#      190498
#      202018
#      212708
#      222671
#      233445
#      246470
#      258611
#      269851
#      282235
#      293663
#      304333
#      316978
#      327074
#      339388
# 
# Disc length: 4680 seconds
# 
# Revision: 8 
# Processed by: cddbd v1.5.2PL0 Copyright (c) Steve Scherf et al.
# Submitted via: LOLA_Freedb v0.9beta0
# 
DISCID=c212461e
DTITLE=Dean Martin - Dino - The Essential Dean Martin
DYEAR=2004
DGENRE=Easy Listening
TTITLE0=Dean Martin - Ain't That A Kick In The Head
TTITLE1=That's Amore
TTITLE2=Memories Are Made Of This
TTITLE3=Just In Time
TTITLE4=Sway
TTITLE5=I'd Cry Like A Baby
TTITLE6=Volare (Nel Blu, Di Pinto Di Blu)
TTITLE7=Under The Bridges Of Paris
TTITLE8=Love Me, Love Me
TTITLE9=If
TTITLE10=Mambo Italiano
TTITLE11=Let Me Go Lover
TTITLE12=Standing On The Corner
TTITLE13=You Belong To Me
TTITLE14=Power Your Face With Sunshine (Smile ! Smile ! Smile !)
TTITLE15=Innamorata (Sweetheart)
TTITLE16=I'll Always Love You (Day After Day)
TTITLE17=Kiss
TTITLE18=You're Nobody 'Til Somebody Loves You
TTITLE19=Return To Me (Ritorna-Me)
TTITLE20=The Door Is Still Open (To My Heart)
TTITLE21=Houston
TTITLE22=Send Me The Pillow You Dream On
TTITLE23=Everybody Loves Somebody
TTITLE24=In The Chapel In The Moonlight
TTITLE25=I Will
TTITLE26=Little Ole Wine Drinker, Me
TTITLE27=Somewhere There's A Someone
TTITLE28=In The Misty Moonlight
TTITLE29=Gentle On My Mind
EXTD=YEAR: 2004
EXTT0=
EXTT1=
EXTT2=
EXTT3=
EXTT4=
EXTT5=
EXTT6=
EXTT7=
EXTT8=
EXTT9=
EXTT10=
EXTT11=
EXTT12=
EXTT13=
EXTT14=
EXTT15=
EXTT16=
EXTT17=
EXTT18=
EXTT19=
EXTT20=
EXTT21=
EXTT22=
EXTT23=
EXTT24=
EXTT25=
EXTT26=
EXTT27=
EXTT28=
EXTT29=
PLAYORDER=
